<?xml version="1.0" encoding="utf-8"?>
<!-- Generator: Adobe Illustrator 22.1.0, SVG Export Plug-In . SVG Version: 6.00 Build 0)  -->
<svg version="1.1" id="Layer_1" xmlns="http://www.w3.org/2000/svg" xmlns:xlink="http://www.w3.org/1999/xlink" x="0px" y="0px"
	 viewBox="0 0 1024 1024" style="enable-background:new 0 0 1024 1024;" xml:space="preserve">
<style type="text/css">
	.st0{clip-path:url(#SVGID_2_);}
	.st1{clip-path:url(#SVGID_4_);fill:#ABB3B2;}
</style>
<g>
	<g>
		<defs>
			<rect id="SVGID_1_" x="-28" y="-28" width="1080" height="1080"/>
		</defs>
		<clipPath id="SVGID_2_">
			<use xlink:href="#SVGID_1_"  style="overflow:visible;"/>
		</clipPath>
		<g class="st0">
			<defs>
				<rect id="SVGID_3_" x="-28" y="-28" width="1080" height="1080"/>
			</defs>
			<clipPath id="SVGID_4_">
				<use xlink:href="#SVGID_3_"  style="overflow:visible;"/>
			</clipPath>
			<path class="st1" d="M410.9,677.2c-45.1-25.7-90.3-51.4-135.4-77.1l-117.2-66.8c-12.7-7.3-25.5-14.5-38.2-21.8
				c-3.1-1.8-12.2-7.2-9.2-5.4c8.1-4.6,16.3-9.3,24.4-13.9c37.3-21.3,74.7-42.5,112-63.8c45.1-25.7,90.3-51.4,135.4-77.1l117.2-66.8
				c11.3-6.4,22.6-12.9,33.9-19.3l-18.2-24.9c-15.4,8.8-30.8,17.5-46.2,26.3c-37.3,21.3-74.7,42.5-112,63.8
				c-45.1,25.7-90.3,51.4-135.4,77.1l-117.2,66.8c-18.9,10.7-80,45.2-80,45.2l10.2,5.8l46.8,26.7l112,63.8
				c45.1,25.7,90.3,51.4,135.4,77.1c39.1,22.3,78.2,44.5,117.2,66.8c5.8,3.3,11.6,6.7,17.4,10l33.9-43.1
				C468.7,710.1,439.8,693.6,410.9,677.2"/>
			<path class="st1" d="M631.8,295.3c7.1-14.8,16.4-28.3,27.2-40c10.8-11.8,23-22,36.3-30.3c13.2-8.3,27.4-14.8,42-19.4
				c14.6-4.6,29.7-7.3,44.8-8.3c15.1-0.9,30.1,0,44.8,2.6l1.4,0.2l1.4,0.3l2.7,0.6l2.7,0.6c0.9,0.2,1.8,0.4,2.7,0.6
				c3.6,0.9,7.2,1.8,10.8,3c7.1,2.1,14.1,4.9,20.9,7.8c27.1,12.1,50.9,31.2,68,55.1c8.6,11.9,15.3,25.1,20.1,38.9l1.7,5.2l0.4,1.3
				l0.3,1.3l0.7,2.6c1,3.5,1.6,7.1,2.3,10.6c0.3,1.8,0.5,3.6,0.8,5.4l0.4,2.7l0.3,2.7c0.2,1.8,0.4,3.6,0.5,5.4l0.2,5.4
				c0.1,1.8,0,3.6,0,5.4l-0.1,2.7c0,0.9,0,1.8-0.1,2.7l-0.4,5.4c0,0.4-0.1,0.9-0.1,1.3l-0.2,1.3l-0.3,2.7c-0.4,3.6-1.1,7.1-1.8,10.6
				c-0.4,1.7-0.8,3.5-1.2,5.2l-0.6,2.6l-0.8,2.6c-4,13.6-10.1,26.5-17.8,38.1c-3.9,5.8-8.2,11.3-12.7,16.5c-1.2,1.3-2.4,2.5-3.5,3.8
				c-0.6,0.6-1.2,1.3-1.8,1.9l-1.9,1.8c-1.3,1.2-2.5,2.4-3.7,3.5l-3.9,3.4c-5.3,4.4-10.7,8.5-16.5,12.1l-2.1,1.4l-2.2,1.3l-4.4,2.6
				c-3,1.5-6,3.2-9.1,4.6c-6.1,2.9-12.4,5.3-18.8,7.4c-3.2,1-6.4,2-9.7,2.8l-2.4,0.6c-0.8,0.2-1.6,0.4-2.4,0.6l-4.9,1
				c-1.6,0.4-3.3,0.6-4.9,0.8l-2.5,0.4c-0.8,0.1-1.6,0.3-2.5,0.3c-3.3,0.4-6.6,0.8-9.9,1c-6.6,0.5-13.2,0.4-19.8,0.2
				c6.6-0.5,13.1-1,19.5-2.2c3.2-0.5,6.4-1.2,9.6-1.9c0.8-0.2,1.6-0.4,2.4-0.6l2.4-0.6c1.6-0.4,3.2-0.8,4.7-1.3l4.6-1.5
				c0.8-0.2,1.5-0.5,2.3-0.8l2.3-0.8c3.1-1.1,6-2.4,9-3.6c5.9-2.7,11.6-5.5,17.1-8.9c21.9-13.2,40.2-32,51.8-53.9
				c5.7-11,9.9-22.6,12-34.6l0.4-2.2l0.3-2.3c0.2-1.5,0.4-3,0.6-4.5c0.2-3,0.6-6,0.6-9l0.1-2.3l0-1.1c0-0.4,0-0.8,0-1.1l-0.1-4.5
				c0-0.7-0.1-1.5-0.1-2.2l-0.2-2.2c-0.1-1.5-0.2-3-0.5-4.5l-0.6-4.4c-0.2-1.5-0.6-2.9-0.8-4.4l-0.4-2.2l-0.5-2.2
				c-0.4-1.4-0.7-2.9-1.1-4.3c-0.9-2.8-1.7-5.7-2.8-8.4l-0.8-2.1l-0.4-1l-0.4-1l-1.8-4c-5-10.6-11.4-20.5-19.2-29.2
				c-15.5-17.5-35.7-30.4-57.5-37.5c-5.5-1.7-11-3.3-16.6-4.3c-2.8-0.6-5.6-1-8.4-1.4c-0.7-0.1-1.4-0.2-2.1-0.3l-2.1-0.2l-2.1-0.2
				L822,244L821,244c-11.3-0.8-22.8-0.3-33.9,1.5c-11.1,1.9-21.8,5-31.9,9.4c-10.1,4.4-19.5,10-27.9,16.6
				c-16.8,13.2-29.6,30.6-36.2,49.4L631.8,295.3z"/>
			<path class="st1" d="M813,498l5.9-0.1c1,0,2,0,3,0l3,0.1c2,0.1,4,0.1,5.9,0.2l5.9,0.4c7.9,0.7,15.8,1.8,23.6,3.6l2.9,0.6l2.9,0.8
				c1.9,0.5,3.9,1,5.8,1.6l5.7,1.8l1.4,0.5l1.4,0.5l2.8,1c3.8,1.3,7.5,3,11.2,4.5c3.6,1.7,7.3,3.4,10.8,5.4c3.6,1.8,7,4,10.5,6.1
				c3.4,2.2,6.8,4.4,10,6.9c1.6,1.2,3.3,2.4,4.9,3.7c1.6,1.3,3.2,2.5,4.7,3.9l4.6,4.1c0.8,0.7,1.5,1.4,2.2,2.1l2.2,2.1
				c5.8,5.8,11.3,11.9,16.2,18.6c1.3,1.6,2.4,3.3,3.6,5c1.2,1.7,2.4,3.4,3.4,5.2c1.1,1.8,2.2,3.5,3.2,5.3l3,5.5
				c3.8,7.4,7.1,15.1,9.8,23.1c2.6,8,4.5,16.2,5.9,24.6c1.2,8.4,1.8,16.8,1.7,25.3c-0.2,8.5-1,17-2.5,25.5
				c-1.6,8.4-3.9,16.7-6.8,24.8l-2.3,6c-0.8,2-1.7,3.9-2.6,5.9c-0.8,2-1.8,3.9-2.8,5.8c-1,1.9-1.9,3.9-3,5.7
				c-4.1,7.6-9,14.7-14.3,21.6l-2,2.5c-0.7,0.8-1.3,1.7-2.1,2.5l-4.3,4.9c-1.4,1.6-3,3.1-4.5,4.7c-0.8,0.8-1.5,1.6-2.3,2.3l-2.4,2.2
				c-3.1,3-6.4,5.8-9.7,8.7c-3.4,2.7-6.8,5.4-10.4,7.9c-3.5,2.6-7.2,4.9-10.9,7.2c-3.8,2.2-7.5,4.4-11.4,6.4
				c-3.8,2.1-7.8,3.8-11.8,5.7c-2,0.9-4,1.7-6.1,2.5c-1,0.4-2,0.8-3,1.2l-3.1,1.1l-3.1,1.1c-1,0.4-2.1,0.7-3.1,1l-6.3,1.9
				c-1,0.3-2.1,0.6-3.2,0.9l-3.2,0.8l-3.2,0.8c-1.1,0.3-2.1,0.5-3.2,0.7l-6.5,1.3l-6.5,1c-1.1,0.2-2.2,0.4-3.3,0.5l-3.3,0.4
				c-2.2,0.2-4.4,0.5-6.6,0.7c-4.4,0.3-8.8,0.6-13.2,0.6l-3.3,0c-1.1,0-2.2,0-3.3,0l-6.6-0.2l-1.7-0.1l-1.7-0.1l-3.3-0.3
				c-2.2-0.2-4.4-0.3-6.6-0.6l-6.6-0.8c-2.2-0.3-4.4-0.7-6.6-1.1l-3.3-0.6l-3.3-0.7c-2.2-0.5-4.4-0.9-6.5-1.5l-6.5-1.7l-1.6-0.4
				l-1.6-0.5l-3.2-1l-3.2-1c-1.1-0.3-2.1-0.8-3.2-1.1c-2.1-0.8-4.2-1.6-6.3-2.4c-4.1-1.8-8.3-3.5-12.4-5.5
				c-4.1-1.9-8.1-4.1-12.1-6.3c-3.9-2.3-7.8-4.6-11.6-7.2c-3.8-2.5-7.5-5.3-11.2-8l-5.4-4.3l-1.3-1.1l-1.3-1.1l-2.6-2.3
				c-6.8-6.2-13.3-12.8-19.2-20.1c-0.7-0.9-1.5-1.8-2.2-2.7l-2.1-2.8c-1.4-1.9-2.9-3.7-4.1-5.7l-3.9-5.8l-3.7-6
				c-4.7-8.2-9-16.7-12.4-25.6c-3.4-8.9-6.1-18.2-8.1-27.6c-1.9-9.5-3-19.1-3.4-28.7h64.7c-0.3,6.1-0.1,12.2,0.5,18.4
				c0.7,6.1,1.9,12.2,3.6,18.2c1.7,6,4,11.9,6.7,17.6l2.1,4.3l2.3,4.2c0.7,1.4,1.7,2.7,2.5,4.1l1.3,2c0.4,0.7,0.9,1.3,1.4,2
				c3.6,5.4,7.7,10.4,12.2,15.2l1.7,1.8l0.8,0.9l0.9,0.9l3.5,3.4c2.5,2.2,4.9,4.5,7.5,6.5c2.5,2.1,5.3,4,8,6
				c2.8,1.8,5.6,3.8,8.5,5.4c2.9,1.8,5.9,3.3,8.9,4.9l4.6,2.2c0.8,0.4,1.5,0.8,2.3,1.1l2.4,1l2.4,1l1.2,0.5l1.2,0.4l4.8,1.8
				c1.6,0.6,3.3,1,4.9,1.6l2.5,0.8l2.5,0.7c1.7,0.4,3.3,0.9,5,1.3l5.1,1.1c1.7,0.4,3.4,0.6,5.1,0.9l2.6,0.4l1.3,0.2l1.3,0.2l5.2,0.6
				c0.9,0.1,1.7,0.2,2.6,0.2l2.6,0.2c3.5,0.3,7,0.3,10.5,0.4c1.7,0,3.5-0.1,5.2-0.1l2.6-0.1c0.9,0,1.7-0.1,2.6-0.2l5.2-0.4l5.2-0.6
				c0.9-0.1,1.7-0.2,2.6-0.3l2.6-0.4l2.6-0.4c0.9-0.1,1.7-0.3,2.6-0.5l5.2-1.1c0.9-0.2,1.7-0.4,2.6-0.6l2.6-0.7l2.6-0.7
				c0.9-0.2,1.7-0.5,2.5-0.8c1.7-0.5,3.4-1,5-1.6c3.3-1.2,6.7-2.3,9.9-3.7c3.3-1.3,6.4-2.9,9.7-4.4c3.1-1.7,6.3-3.2,9.3-5.1
				c3.1-1.7,6-3.8,9-5.7c2.9-2.1,5.8-4.1,8.5-6.4l2.1-1.7c0.7-0.6,1.3-1.2,2-1.7c1.3-1.2,2.7-2.3,4-3.5l3.8-3.7
				c0.7-0.6,1.3-1.3,1.9-1.9l1.8-1.9c4.8-5.2,9.4-10.8,13.3-16.7c1.1-1.4,2-3,2.9-4.5c0.9-1.5,1.9-3,2.7-4.6
				c0.8-1.6,1.8-3.1,2.6-4.7l2.4-4.8c3-6.5,5.5-13.3,7.4-20.2c1.9-7,3.2-14.1,4-21.3c0.7-7.2,0.8-14.6,0.4-21.9
				c-0.5-7.3-1.6-14.6-3.3-21.8c-1.7-7.2-4.1-14.2-6.9-21.1l-2.2-5.1c-0.8-1.7-1.7-3.3-2.5-5c-0.8-1.7-1.8-3.3-2.7-4.9
				c-0.9-1.6-1.8-3.3-2.9-4.9c-3.9-6.4-8.5-12.5-13.4-18.3l-1.9-2.2c-0.6-0.7-1.2-1.4-1.9-2.1l-3.9-4.1c-1.3-1.3-2.7-2.6-4.1-4
				c-1.4-1.3-2.8-2.6-4.3-3.8c-2.8-2.6-5.9-4.9-8.9-7.3c-3.1-2.2-6.2-4.6-9.5-6.6c-3.2-2.2-6.6-4-9.9-6c-3.4-1.8-6.8-3.7-10.4-5.2
				l-2.6-1.2l-1.3-0.6l-1.3-0.6l-5.4-2.2c-1.8-0.7-3.7-1.3-5.5-2l-2.8-1l-2.8-0.9c-7.4-2.4-15.1-4.1-22.8-5.5l-5.8-0.9
				c-1.9-0.3-3.9-0.5-5.9-0.7l-2.9-0.3c-1-0.1-2-0.1-2.9-0.2L813,498z"/>
		</g>
	</g>
</g>
</svg>
