<?xml version="1.0" encoding="utf-8"?>
<!-- Generator: Adobe Illustrator 22.1.0, SVG Export Plug-In . SVG Version: 6.00 Build 0)  -->
<svg version="1.1" id="Layer_1" xmlns="http://www.w3.org/2000/svg" xmlns:xlink="http://www.w3.org/1999/xlink" x="0px" y="0px"
	 viewBox="0 0 1024 1024" style="enable-background:new 0 0 1024 1024;" xml:space="preserve">
<style type="text/css">
	.st0{fill:#ABB3B2;}
</style>
<polygon class="st0" points="54,493.4 54,526.4 504.3,805.2 524.7,772.2 101.1,509.9 524.7,247.6 504.3,214.6 "/>
<g>
	<path class="st0" d="M914.4,516.4c-9.9-9.1-20.8-17-32.3-23.8c4-3.1,7.9-6.3,11.6-9.7c32.9-30.2,51-70.6,51-113.7
		s-18.1-83.5-51-113.7c-32.2-29.5-74.7-45.8-119.9-45.8c-34.5,0-67.7,9.5-96.1,27.6c-24.1,15.3-43.4,35.8-56.4,59.8
		c-2,3.3-3.7,6.8-5.2,10.5c-0.3,0.7-0.6,1.3-0.9,2l0.1,0c-2.8,7.8-4.5,16.2-4.6,25c-0.6,37.7,26.3,67.7,60.1,67.1
		c33.8-0.6,61.8-31.7,62.4-69.4c0.6-32.8-19.7-59.8-47.3-65.8c21.8-18.4,50.3-29.5,81.6-29.5c68.4,0,123.8,53.3,123.8,118.9
		c0,63.7-52,115.6-117.5,118.8v0.2h-53.1v32.6h53.1v0.1c74.4,2.7,133.9,60.2,133.9,130.9c0,0.2,0,0.4,0,0.7c0,0.2,0,0.4,0,0.6
		c0,3.9-0.2,7.8-0.7,11.6c-6.9,66.3-66.3,118.1-138.7,118.1c-51.8,0-97-26.6-121-66c2.2,0.2,4.4,0.4,6.7,0.3
		c31.6-0.6,57.7-29.7,58.3-64.9c0.6-35.2-24.5-63.3-56.1-62.7c-31.2,0.6-57,29-58.3,63.6H598c0,0.4,0,0.8,0,1.2c0,0,0,0.1,0,0.1
		c0,2.2,0,4.4,0.2,6.5c2.1,43.8,21.5,84.6,55.2,115.6c35,32.1,81.3,49.8,130.5,49.8c49.2,0,95.5-17.7,130.5-49.8
		c35.7-32.8,55.4-76.6,55.4-123.4C969.8,593,950.1,549.2,914.4,516.4"/>
</g>
</svg>
