<?xml version="1.0" encoding="utf-8"?>
<!-- Generator: Adobe Illustrator 22.1.0, SVG Export Plug-In . SVG Version: 6.00 Build 0)  -->
<svg version="1.1" id="Layer_1" xmlns="http://www.w3.org/2000/svg" xmlns:xlink="http://www.w3.org/1999/xlink" x="0px" y="0px"
	 viewBox="0 0 1024 1024" style="enable-background:new 0 0 1024 1024;" xml:space="preserve">
<style type="text/css">
	.st0{clip-path:url(#SVGID_2_);fill:#FFFFFF;}
	.st1{clip-path:url(#SVGID_2_);}
	.st2{clip-path:url(#SVGID_4_);fill:#FFFFFF;}
	.st3{clip-path:url(#SVGID_2_);fill:#ABB3B2;}
	.st4{clip-path:url(#SVGID_6_);fill:#ABB3B2;}
</style>
<g>
	<g>
		<defs>
			<rect id="SVGID_1_" x="-29" y="-38" width="1080" height="1080"/>
		</defs>
		<clipPath id="SVGID_2_">
			<use xlink:href="#SVGID_1_"  style="overflow:visible;"/>
		</clipPath>
		<polygon class="st0" points="511.2,790.3 3.6,501.1 504.4,228.4 547.7,307.8 189.4,502.9 556,711.7 		"/>
		<g class="st1">
			<defs>
				<rect id="SVGID_3_" x="-29" y="-38" width="1080" height="1080"/>
			</defs>
			<clipPath id="SVGID_4_">
				<use xlink:href="#SVGID_3_"  style="overflow:visible;"/>
			</clipPath>
			<path class="st2" d="M806.9,533.3v-90.4c52.8,0,95.8-37.8,95.8-84.2c0-46.4-43-84.2-95.8-84.2c-20.2,0-39.5,5.5-55.9,15.9
				c-15.4,9.8-27,23.1-33.7,38.6l-83-35.9c13.9-32.2,37.5-59.5,68.3-79.1c30.9-19.6,66.9-30,104.4-30c49,0,95.3,17.7,130.3,49.8
				c17.4,16,31.1,34.6,40.7,55.5c10.1,21.9,15.2,45.2,15.2,69.3c0,24-5.1,47.4-15.2,69.3c-9.6,20.9-23.3,39.6-40.7,55.5
				C902.2,515.7,855.9,533.3,806.9,533.3"/>
			<path class="st2" d="M817.1,819.9c-53,0-103.1-19.1-141-53.9c-18.8-17.2-33.6-37.4-43.9-59.9c-10.9-23.6-16.4-48.8-16.4-74.7
				h90.4c0,54.1,49.7,98.1,110.9,98.1s110.9-44,110.9-98.1s-49.7-98.1-110.9-98.1v-90.4c53,0,103.1,19.1,141,53.9
				c18.8,17.2,33.6,37.4,43.9,59.9c10.9,23.6,16.4,48.8,16.4,74.7c0,25.9-5.5,51.1-16.4,74.7c-10.4,22.5-25.2,42.7-43.9,59.9
				C920.2,800.7,870.1,819.9,817.1,819.9"/>
		</g>
		<polygon class="st3" points="511.2,790.3 3.6,501.1 504.4,228.4 547.7,307.8 189.4,502.9 556,711.7 		"/>
		<g class="st1">
			<defs>
				<rect id="SVGID_5_" x="-29" y="-38" width="1080" height="1080"/>
			</defs>
			<clipPath id="SVGID_6_">
				<use xlink:href="#SVGID_5_"  style="overflow:visible;"/>
			</clipPath>
			<path class="st4" d="M806.9,533.3v-90.4c52.8,0,95.8-37.8,95.8-84.2c0-46.4-43-84.2-95.8-84.2c-20.2,0-39.5,5.5-55.9,15.9
				c-15.4,9.8-27,23.1-33.7,38.6l-83-35.9c13.9-32.2,37.5-59.5,68.3-79.1c30.9-19.6,66.9-30,104.4-30c49,0,95.3,17.7,130.3,49.8
				c17.4,16,31.1,34.6,40.7,55.5c10.1,21.9,15.2,45.2,15.2,69.3c0,24-5.1,47.4-15.2,69.3c-9.6,20.9-23.3,39.6-40.7,55.5
				C902.2,515.7,855.9,533.3,806.9,533.3"/>
			<path class="st4" d="M817.1,819.9c-53,0-103.1-19.1-141-53.9c-18.8-17.2-33.6-37.4-43.9-59.9c-10.9-23.6-16.4-48.8-16.4-74.7
				h90.4c0,54.1,49.7,98.1,110.9,98.1s110.9-44,110.9-98.1s-49.7-98.1-110.9-98.1v-90.4c53,0,103.1,19.1,141,53.9
				c18.8,17.2,33.6,37.4,43.9,59.9c10.9,23.6,16.4,48.8,16.4,74.7c0,25.9-5.5,51.1-16.4,74.7c-10.4,22.5-25.2,42.7-43.9,59.9
				C920.2,800.7,870.1,819.9,817.1,819.9"/>
		</g>
	</g>
</g>
</svg>
