<?xml version="1.0" encoding="utf-8"?>
<!-- Generator: Adobe Illustrator 22.1.0, SVG Export Plug-In . SVG Version: 6.00 Build 0)  -->
<svg version="1.1" id="Layer_1" xmlns="http://www.w3.org/2000/svg" xmlns:xlink="http://www.w3.org/1999/xlink" x="0px" y="0px"
	 viewBox="0 0 1024 1024" style="enable-background:new 0 0 1024 1024;" xml:space="preserve">
<style type="text/css">
	.st0{clip-path:url(#SVGID_2_);}
	.st1{clip-path:url(#SVGID_4_);fill:#ABB3B2;}
</style>
<g>
	<g>
		<defs>
			<rect id="SVGID_1_" x="-6" y="-3" width="1030" height="1030"/>
		</defs>
		<clipPath id="SVGID_2_">
			<use xlink:href="#SVGID_1_"  style="overflow:visible;"/>
		</clipPath>
		<g class="st0">
			<defs>
				<rect id="SVGID_3_" x="-6" y="-3" width="1030" height="1030"/>
			</defs>
			<clipPath id="SVGID_4_">
				<use xlink:href="#SVGID_3_"  style="overflow:visible;"/>
			</clipPath>
			<path class="st1" d="M448.3,777.2L7,504l441.3-273.2h91.3L114,498.9c0,0-10.5-0.4-10.5,5c0,5.5,10.9,5.3,10.9,5.3l425.3,268
				H448.3z"/>
			<path class="st1" d="M873.9,491.1c63.8-12.9,111.5-65.1,111.5-127.6c0-72.1-63.7-130.6-142.3-130.6
				c-60.1,0-111.5,34.2-132.4,82.5h-68.5c20.9-48.3,72.3-82.5,132.4-82.5c78.6,0,142.3,58.5,142.3,130.6s-63.7,130.6-142.3,130.6
				l-0.8,9.8h11.1c87,0,157.6,64.8,157.6,144.6c0,79.9-70.6,144.6-157.6,144.6c-87,0-157.6-64.8-157.6-144.6h68.5
				c0,79.9,70.6,144.6,157.6,144.6c87,0,157.6-64.8,157.6-144.6c0-73.4-59.6-134.1-136.9-143.4C867.3,504.4,864,493.1,873.9,491.1"
				/>
		</g>
	</g>
</g>
</svg>
