<?xml version="1.0" encoding="utf-8"?>
<!-- Generator: Adobe Illustrator 22.1.0, SVG Export Plug-In . SVG Version: 6.00 Build 0)  -->
<svg version="1.1" id="Layer_1" xmlns="http://www.w3.org/2000/svg" xmlns:xlink="http://www.w3.org/1999/xlink" x="0px" y="0px"
	 viewBox="0 0 1024 1024" style="enable-background:new 0 0 1024 1024;" xml:space="preserve">
<style type="text/css">
	.st0{clip-path:url(#SVGID_2_);}
	.st1{clip-path:url(#SVGID_4_);fill:#ABB3B2;}
</style>
<g>
	<g>
		<defs>
			<rect id="SVGID_1_" x="-36" y="-28" width="1080" height="1080"/>
		</defs>
		<clipPath id="SVGID_2_">
			<use xlink:href="#SVGID_1_"  style="overflow:visible;"/>
		</clipPath>
		<g class="st0">
			<defs>
				<rect id="SVGID_3_" x="-36" y="-28" width="1080" height="1080"/>
			</defs>
			<clipPath id="SVGID_4_">
				<use xlink:href="#SVGID_3_"  style="overflow:visible;"/>
			</clipPath>
			<path class="st1" d="M422,353c-19.2,11.5-44.2,5.3-55.7-14c-11.5-19.2-5.3-44.2,14-55.7c19.2-11.5,44.2-5.3,55.7,14
				C447.5,316.6,441.2,341.5,422,353"/>
			<path class="st1" d="M102.9,555c-19.2,11.5-44.2,5.3-55.7-14c-11.5-19.2-5.3-44.2,14-55.7c19.2-11.5,44.2-5.3,55.7,14
				C128.4,518.6,122.1,543.5,102.9,555"/>
			<path class="st1" d="M308.1,418.5c-19.2,11.5-44.2,5.3-55.7-14c-11.5-19.2-5.3-44.2,14-55.7c19.2-11.5,44.2-5.3,55.7,14
				C333.6,382.1,327.3,407,308.1,418.5"/>
			<path class="st1" d="M203.6,487.7c-19.2,11.5-44.2,5.3-55.7-14c-11.5-19.2-5.3-44.2,14-55.7c19.2-11.5,44.2-5.3,55.7,14
				C229.2,451.2,222.9,476.2,203.6,487.7"/>
			<path class="st1" d="M422,688.5c-19.2-11.5-44.2-5.3-55.7,14c-11.5,19.2-5.3,44.2,14,55.7c19.2,11.5,44.2,5.3,55.7-14
				C447.5,725,441.2,700,422,688.5"/>
			<path class="st1" d="M322.8,621.2c-19.2-11.5-44.2-5.3-55.7,14c-11.5,19.2-5.3,44.2,14,55.7c19.2,11.5,44.2,5.3,55.7-14
				C348.3,657.7,342.1,632.7,322.8,621.2"/>
			<path class="st1" d="M203.6,553.9c-19.2-11.5-44.2-5.3-55.7,14c-11.5,19.2-5.3,44.2,14,55.7c19.2,11.5,44.2,5.3,55.7-14
				C229.2,590.3,222.9,565.4,203.6,553.9"/>
			<path class="st1" d="M657.7,369.9c0,22.4-18.2,40.6-40.6,40.6c-22.4,0-40.6-18.2-40.6-40.6c0-22.4,18.2-40.6,40.6-40.6
				C639.5,329.3,657.7,347.5,657.7,369.9"/>
			<path class="st1" d="M859.9,297.4c0,22.4,18.2,40.6,40.6,40.6c22.4,0,40.6-18.2,40.6-40.6c0-22.4-18.2-40.6-40.6-40.6
				C878.1,256.8,859.9,275,859.9,297.4"/>
			<path class="st1" d="M793.9,511.2c0,22.4,18.2,40.6,40.6,40.6c22.4,0,40.6-18.2,40.6-40.6c0-22.4-18.2-40.6-40.6-40.6
				C812,470.6,793.9,488.8,793.9,511.2"/>
			<path class="st1" d="M880.7,417.6c0,22.4,18.2,40.6,40.6,40.6c22.4,0,40.6-18.2,40.6-40.6c0-22.4-18.2-40.6-40.6-40.6
				C898.9,377,880.7,395.2,880.7,417.6"/>
			<path class="st1" d="M753.2,232.2c0,22.4,18.2,40.6,40.6,40.6c22.4,0,40.6-18.2,40.6-40.6c0-22.4-18.2-40.6-40.6-40.6
				C771.4,191.6,753.2,209.8,753.2,232.2"/>
			<path class="st1" d="M627.6,256.8c0,22.4,18.2,40.6,40.6,40.6c22.4,0,40.6-18.2,40.6-40.6c0-22.4-18.2-40.6-40.6-40.6
				C645.8,216.2,627.6,234.4,627.6,256.8"/>
			<path class="st1" d="M657.7,654.1c0-22.4-18.2-40.6-40.6-40.6c-22.4,0-40.6,18.2-40.6,40.6c0,22.4,18.2,40.6,40.6,40.6
				C639.5,694.7,657.7,676.5,657.7,654.1"/>
			<path class="st1" d="M859.9,726.6c0-22.4,18.2-40.6,40.6-40.6c22.4,0,40.6,18.2,40.6,40.6c0,22.4-18.2,40.6-40.6,40.6
				C878.1,767.2,859.9,749,859.9,726.6"/>
			<path class="st1" d="M880.7,601.4c0-22.4,18.2-40.6,40.6-40.6c22.4,0,40.6,18.2,40.6,40.6S943.7,642,921.3,642
				C898.9,642,880.7,623.8,880.7,601.4"/>
			<path class="st1" d="M753.2,791.8c0-22.4,18.2-40.6,40.6-40.6c22.4,0,40.6,18.2,40.6,40.6c0,22.4-18.2,40.6-40.6,40.6
				C771.4,832.4,753.2,814.2,753.2,791.8"/>
			<path class="st1" d="M627.6,767.2c0-22.4,18.2-40.6,40.6-40.6c22.4,0,40.6,18.2,40.6,40.6c0,22.4-18.2,40.6-40.6,40.6
				C645.8,807.8,627.6,789.6,627.6,767.2"/>
		</g>
	</g>
</g>
</svg>
